<svg width="185" height="172" viewBox="0 0 185 172" fill="none" xmlns="http://www.w3.org/2000/svg">
<circle cx="97.7812" cy="86" r="86" fill="#F9FAFB"/>
<path d="M131.04 39.1465H85.2285V21.7607H145.281C145.391 21.7607 145.501 21.7607 145.612 21.7607C154.995 21.9822 162.612 29.7338 162.612 39.1465H142.742" fill="#F1F3F9"/>
<path d="M131.04 39.1465H85.2285V21.7607H145.281C145.391 21.7607 145.501 21.7607 145.612 21.7607C154.995 21.9822 162.612 29.7338 162.612 39.1465H142.742H131.04Z" stroke="#C2C2C2" stroke-width="2" stroke-miterlimit="10"/>
<path d="M146.935 21.7607C143.403 21.9822 140.091 23.4218 137.773 25.858C137.552 26.0795 137.332 26.301 137.111 26.6332C135.013 29.0694 133.468 32.2808 133.468 35.7137V139.143C133.468 148.777 125.741 156.528 116.137 156.528H31.7988V34.9385C32.0196 31.3949 33.3443 28.1835 35.6625 25.858C38.2014 23.3111 41.6235 21.7607 45.4872 21.7607H130.377H146.494C146.604 21.7607 146.715 21.7607 146.935 21.7607Z" fill="white" stroke="#C2C2C2" stroke-width="2" stroke-miterlimit="10" stroke-linejoin="round"/>
<path d="M116.689 45.4579H91.6305C90.7473 45.4579 89.9746 44.6827 89.9746 43.7968C89.9746 42.9109 90.7473 42.1357 91.6305 42.1357H116.689C117.572 42.1357 118.345 42.9109 118.345 43.7968C118.345 44.6827 117.682 45.4579 116.689 45.4579Z" fill="#9E9E9E"/>
<path d="M79.8195 45.4579H47.1441C46.261 45.4579 45.4883 44.6827 45.4883 43.7968C45.4883 42.9109 46.261 42.1357 47.1441 42.1357H79.9299C80.813 42.1357 81.5858 42.9109 81.5858 43.7968C81.5858 44.6827 80.813 45.4579 79.8195 45.4579Z" fill="#C2C2C2"/>
<path d="M100.793 61.8465H68.2281C67.345 61.8465 66.5723 61.0714 66.5723 60.1855C66.5723 59.2996 67.345 58.5244 68.2281 58.5244H100.793C101.676 58.5244 102.449 59.2996 102.449 60.1855C102.559 61.0714 101.787 61.8465 100.793 61.8465Z" fill="#9E9E9E"/>
<path d="M57.7416 61.8465H47.1441C46.261 61.8465 45.4883 61.0714 45.4883 60.1855C45.4883 59.2996 46.261 58.5244 47.1441 58.5244H57.7416C58.6247 58.5244 59.3974 59.2996 59.3974 60.1855C59.3974 61.0714 58.6247 61.8465 57.7416 61.8465Z" fill="#C2C2C2"/>
<path d="M116.691 78.2372H96.7105C95.8274 78.2372 95.0547 77.462 95.0547 76.5761C95.0547 75.6902 95.8274 74.915 96.7105 74.915H116.691C117.574 74.915 118.347 75.6902 118.347 76.5761C118.347 77.462 117.685 78.2372 116.691 78.2372Z" fill="#C2C2C2"/>
<path d="M87.1053 78.2372H47.1441C46.261 78.2372 45.4883 77.462 45.4883 76.5761C45.4883 75.6902 46.261 74.915 47.1441 74.915H87.1053C87.9884 74.915 88.7611 75.6902 88.7611 76.5761C88.7611 77.462 88.0988 78.2372 87.1053 78.2372Z" fill="#9E9E9E"/>
<path d="M100.793 94.6268H78.8258C77.9427 94.6268 77.1699 93.8517 77.1699 92.9658C77.1699 92.0799 77.9427 91.3047 78.8258 91.3047H100.793C101.676 91.3047 102.449 92.0799 102.449 92.9658C102.56 93.8517 101.787 94.6268 100.793 94.6268Z" fill="#9E9E9E"/>
<path d="M69.2221 94.6268H47.1441C46.261 94.6268 45.4883 93.8517 45.4883 92.9658C45.4883 92.0799 46.261 91.3047 47.1441 91.3047H69.3325C70.2156 91.3047 70.9883 92.0799 70.9883 92.9658C70.9883 93.8517 70.2156 94.6268 69.2221 94.6268Z" fill="#C2C2C2"/>
<path d="M116.689 111.015H101.345C100.462 111.015 99.6895 110.239 99.6895 109.353C99.6895 108.468 100.462 107.692 101.345 107.692H116.689C117.573 107.692 118.345 108.468 118.345 109.353C118.345 110.239 117.683 111.015 116.689 111.015Z" fill="#9E9E9E"/>
<path d="M91.406 111.015H65.6851C64.802 111.015 64.0293 110.239 64.0293 109.353C64.0293 108.468 64.802 107.692 65.6851 107.692H91.406C92.2891 107.692 93.0618 108.468 93.0618 109.353C93.0618 110.239 92.2891 111.015 91.406 111.015Z" fill="#C2C2C2"/>
<path d="M56.0857 111.015H47.1441C46.261 111.015 45.4883 110.239 45.4883 109.353C45.4883 108.468 46.261 107.692 47.1441 107.692H56.0857C56.9688 107.692 57.7416 108.468 57.7416 109.353C57.7416 110.239 56.9688 111.015 56.0857 111.015Z" fill="#9E9E9E"/>
<path d="M100.794 127.404H85.5601C84.677 127.404 83.9043 126.629 83.9043 125.743C83.9043 124.857 84.677 124.082 85.5601 124.082H100.794C101.677 124.082 102.45 124.857 102.45 125.743C102.56 126.629 101.787 127.404 100.794 127.404Z" fill="#9E9E9E"/>
<path d="M75.5143 127.404H47.1441C46.261 127.404 45.4883 126.629 45.4883 125.743C45.4883 124.857 46.261 124.082 47.1441 124.082H75.5143C76.3974 124.082 77.1702 124.857 77.1702 125.743C77.1702 126.629 76.3974 127.404 75.5143 127.404Z" fill="#C2C2C2"/>
<path d="M79.0456 142.797H101.344C101.344 146.562 102.89 149.995 105.318 152.431C107.747 154.978 111.169 156.418 114.922 156.418H14.578C10.8247 156.418 7.40261 154.867 4.97403 152.431C2.54546 149.995 1 146.562 1 142.797H67.0131C67.0131 142.797 79.2664 142.908 79.0456 142.797Z" fill="#F1F3F9" stroke="#C2C2C2" stroke-width="2" stroke-miterlimit="10"/>
<path d="M174.774 132.191L160.836 118.264L164.031 115.068L177.958 129.006L174.774 132.191Z" fill="white" stroke="#EE9D2B" stroke-width="2" stroke-miterlimit="10"/>
<path d="M169.282 123.519C169.979 122.821 171.117 122.822 171.814 123.519L182.503 134.207C183.2 134.904 183.2 136.042 182.503 136.739C181.806 137.436 180.668 137.436 179.971 136.739L169.282 126.051C168.585 125.354 168.585 124.216 169.282 123.519Z" fill="#858B9B" stroke="#EE9D2B"/>
<path d="M178.861 137.775L165.111 124.024C164.791 123.704 164.791 123.187 165.111 122.856L168.626 119.341C168.945 119.022 169.463 119.022 169.793 119.341L183.544 133.092C183.864 133.411 183.864 133.929 183.544 134.26L180.029 137.775C179.699 138.094 179.181 138.094 178.861 137.775Z" fill="white" stroke="#EE9D2B" stroke-width="2" stroke-miterlimit="10"/>
<path d="M145.059 73.3877C130.471 73.3877 118.648 85.2101 118.648 99.7981C118.648 114.375 130.471 126.209 145.048 126.209C159.636 126.209 171.458 114.386 171.458 99.7981C171.458 85.2101 159.636 73.3877 145.059 73.3877ZM145.059 121.317C133.347 121.317 123.86 111.676 123.86 99.7871C123.86 87.8986 133.347 78.2687 145.059 78.2687C156.771 78.2687 166.258 87.9096 166.258 99.7981C166.258 111.687 156.76 121.317 145.059 121.317Z" fill="white" stroke="#EE9D2B" stroke-width="2" stroke-miterlimit="10"/>
</svg>
